<?xml version="1.0" encoding="UTF-8"?> <svg xmlns="http://www.w3.org/2000/svg" viewBox="1955.0744247436523 2455.07373046875 89.85115051269531 89.8525390625" width="89.85115051269531" height="89.8525390625"><path fill="#f4721e" stroke="#f4721e" fill-opacity="1" stroke-width="1" stroke-opacity="1" alignment-baseline="baseline" baseline-shift="baseline" color="rgb(51, 51, 51)" font-size-adjust="none" id="tSvg14b03af7e66" d="M 2043.4859618530274 2472.068267578125 C 2038.3009618530273 2466.883267578125 2033.1159618530273 2461.698267578125 2027.9309618530274 2456.513267578125 C 2027.3449618530274 2455.927267578125 2026.3959618530273 2455.927267578125 2025.8099618530273 2456.513267578125 C 2016.5849618530274 2465.7379342447916 2007.3599618530272 2474.962600911458 1998.1349618530273 2484.187267578125 C 1992.5659618530274 2478.707934244792 1986.9969618530274 2473.228600911458 1981.4279618530275 2467.749267578125 C 1981.4149618530273 2467.736267578125 1981.3979618530273 2467.727267578125 1981.3839618530274 2467.715267578125 C 1981.3289618530273 2467.665267578125 1981.2699618530273 2467.620267578125 1981.2069618530275 2467.578267578125 C 1981.1769618530273 2467.558267578125 1981.1489618530272 2467.536267578125 1981.1179618530273 2467.518267578125 C 1981.0439618530274 2467.476267578125 1980.9649618530273 2467.443267578125 1980.8829618530274 2467.413267578125 C 1980.8619618530274 2467.406267578125 1980.8439618530274 2467.393267578125 1980.8229618530274 2467.386267578125 C 1973.2802951863607 2465.029600911458 1965.737628519694 2462.6729342447916 1958.1949618530273 2460.316267578125 C 1957.6649618530273 2460.151267578125 1957.0819618530275 2460.293267578125 1956.6869618530272 2460.687267578125 C 1956.2919618530273 2461.082267578125 1956.1489618530272 2461.663267578125 1956.3159618530274 2462.195267578125 C 1958.6729618530273 2469.7376009114582 1961.0299618530273 2477.2799342447915 1963.3869618530273 2484.822267578125 C 1963.4299618530274 2484.959267578125 1963.4959618530274 2485.085267578125 1963.5749618530274 2485.203267578125 C 1963.5999618530273 2485.241267578125 1963.6299618530275 2485.272267578125 1963.6579618530272 2485.307267578125 C 1963.6949618530273 2485.353267578125 1963.7249618530273 2485.403267578125 1963.7669618530274 2485.444267578125 C 1969.3302951863607 2490.9179342447915 1974.893628519694 2496.391600911458 1980.4569618530275 2501.865267578125 C 1972.4759618530275 2509.846600911458 1964.4949618530272 2517.827934244792 1956.5139618530272 2525.809267578125 C 1955.9279618530275 2526.395267578125 1955.9279618530275 2527.344267578125 1956.5139618530272 2527.930267578125 C 1961.6992951863606 2533.115934244792 1966.884628519694 2538.3016009114585 1972.0699618530273 2543.487267578125 C 1972.3509618530275 2543.7682675781252 1972.7329618530273 2543.926267578125 1973.1309618530274 2543.926267578125 C 1973.5289618530273 2543.926267578125 1973.9099618530274 2543.768267578125 1974.1919618530274 2543.487267578125 C 1982.2552951863606 2535.423934244792 1990.318628519694 2527.3606009114583 1998.3819618530274 2519.297267578125 C 2004.9059618530273 2525.6376009114583 2011.4299618530274 2531.977934244792 2017.9539618530273 2538.318267578125 C 2018.2039618530273 2538.559267578125 2018.5179618530274 2538.676267578125 2018.8389618530273 2538.711267578125 C 2021.1089618530273 2540.816267578125 2024.0369618530274 2541.981267578125 2027.1509618530274 2541.981267578125 C 2030.4229618530273 2541.981267578125 2033.4999618530273 2540.707267578125 2035.8129618530274 2538.3932675781252 C 2040.5259618530274 2533.680267578125 2040.5789618530273 2526.055267578125 2035.9899618530274 2521.265267578125 C 2035.9169618530273 2521.016267578125 2035.7869618530274 2520.786267578125 2035.5969618530273 2520.603267578125 C 2029.0539618530274 2514.3056009114584 2022.5109618530273 2508.0079342447916 2015.9679618530274 2501.710267578125 C 2025.1409618530274 2492.5369342447916 2034.3139618530274 2483.3636009114584 2043.4869618530274 2474.190267578125C 2044.0719618530275 2473.603267578125 2044.0719618530275 2472.654267578125 2043.4859618530274 2472.068267578125Z M 1978.5209618530273 2469.811267578125 C 1978.1472951863607 2471.081267578125 1977.773628519694 2472.351267578125 1977.3999618530274 2473.621267578125 C 1975.6579618530272 2474.1336009114584 1973.9159618530273 2474.6459342447915 1972.1739618530273 2475.158267578125 C 1971.6849618530273 2475.302267578125 1971.3019618530273 2475.684267578125 1971.1579618530272 2476.174267578125 C 1970.6459618530273 2477.9159342447915 1970.1339618530274 2479.6576009114583 1969.6219618530274 2481.399267578125 C 1968.351628519694 2481.7729342447915 1967.0812951863606 2482.1466009114583 1965.8109618530273 2482.520267578125 C 1963.8852951863607 2476.358267578125 1961.959628519694 2470.196267578125 1960.0339618530274 2464.034267578125C 1966.1962951863607 2465.959934244792 1972.358628519694 2467.8856009114584 1978.5209618530273 2469.811267578125Z M 1973.1299618530275 2540.305267578125 C 1968.651628519694 2535.826600911458 1964.1732951863607 2531.3479342447918 1959.6949618530273 2526.869267578125 C 1961.5789618530273 2524.985267578125 1963.4629618530273 2523.101267578125 1965.3469618530273 2521.217267578125 C 1967.5859618530274 2523.456267578125 1969.8249618530274 2525.695267578125 1972.0639618530274 2527.934267578125 C 1972.3569618530273 2528.227267578125 1972.7409618530273 2528.373267578125 1973.1249618530273 2528.373267578125 C 1973.5089618530274 2528.373267578125 1973.8929618530274 2528.227267578125 1974.1859618530273 2527.934267578125 C 1974.7719618530273 2527.348267578125 1974.7719618530273 2526.399267578125 1974.1859618530273 2525.813267578125 C 1971.9469618530272 2523.574267578125 1969.7079618530274 2521.3352675781252 1967.4689618530274 2519.096267578125 C 1969.303628519694 2517.261600911458 1971.1382951863607 2515.4269342447915 1972.9729618530273 2513.592267578125 C 1975.2119618530273 2515.831267578125 1977.4509618530274 2518.070267578125 1979.6899618530274 2520.309267578125 C 1979.9829618530273 2520.602267578125 1980.3669618530273 2520.748267578125 1980.7509618530273 2520.748267578125 C 1981.1349618530273 2520.748267578125 1981.5189618530273 2520.602267578125 1981.8119618530272 2520.309267578125 C 1982.3979618530273 2519.723267578125 1982.3979618530273 2518.774267578125 1981.8119618530272 2518.188267578125 C 1979.5729618530274 2515.949267578125 1977.3339618530274 2513.7102675781252 1975.0949618530274 2511.471267578125 C 1977.5979618530273 2508.968267578125 1980.1009618530275 2506.465267578125 1982.6039618530274 2503.962267578125 C 1987.1462951863607 2508.3769342447918 1991.688628519694 2512.7916009114583 1996.2309618530273 2517.206267578125C 1988.5306285196941 2524.9059342447918 1980.8302951863607 2532.605600911458 1973.1299618530275 2540.305267578125Z M 2033.6889618530274 2536.271267578125 C 2030.3319618530272 2539.626267578125 2025.0209618530273 2539.855267578125 2021.3929618530274 2536.966267578125 C 2025.723628519694 2532.6356009114584 2030.0542951863606 2528.3049342447916 2034.3849618530273 2523.974267578125C 2037.2739618530272 2527.603267578125 2037.0449618530274 2532.916267578125 2033.6889618530274 2536.271267578125Z M 2018.9829618530273 2535.135267578125 C 2007.1689618530274 2523.6536009114584 1995.3549618530274 2512.171934244792 1983.5409618530273 2500.690267578125 C 1978.2569618530274 2495.491600911458 1972.9729618530273 2490.2929342447915 1967.6889618530274 2485.094267578125 C 1968.8772951863607 2484.7449342447917 1970.065628519694 2484.395600911458 1971.2539618530272 2484.046267578125 C 1971.7429618530273 2483.902267578125 1972.1259618530273 2483.520267578125 1972.2699618530273 2483.030267578125 C 1972.7822951863607 2481.288600911458 1973.294628519694 2479.546934244792 1973.8069618530274 2477.805267578125 C 1975.5489618530273 2477.2929342447915 1977.2909618530273 2476.7806009114584 1979.0329618530272 2476.268267578125 C 1979.5219618530273 2476.124267578125 1979.9049618530273 2475.742267578125 1980.0489618530273 2475.252267578125 C 1980.4029618530274 2474.049267578125 1980.7569618530274 2472.846267578125 1981.1109618530274 2471.643267578125 C 1991.659628519694 2482.0219342447917 2002.2082951863606 2492.4006009114582 2012.7569618530274 2502.779267578125 C 2019.3099618530273 2509.087267578125 2025.8629618530274 2515.395267578125 2032.4159618530273 2521.703267578125C 2027.9382951863606 2526.1806009114584 2023.460628519694 2530.6579342447917 2018.9829618530273 2535.135267578125Z M 2013.8169618530274 2499.618267578125 C 2009.3022951863607 2495.1759342447917 2004.787628519694 2490.7336009114583 2000.2729618530273 2486.291267578125 C 2002.8392951863607 2483.7249342447917 2005.4056285196941 2481.1586009114585 2007.9719618530273 2478.592267578125 C 2010.2109618530274 2480.831267578125 2012.4499618530274 2483.070267578125 2014.6889618530274 2485.309267578125 C 2014.9819618530273 2485.602267578125 2015.3659618530273 2485.748267578125 2015.7499618530273 2485.748267578125 C 2016.1339618530274 2485.748267578125 2016.5179618530274 2485.602267578125 2016.8109618530273 2485.309267578125 C 2017.3969618530273 2484.724267578125 2017.3969618530273 2483.773267578125 2016.8109618530273 2483.188267578125 C 2014.5719618530275 2480.949267578125 2012.3329618530274 2478.710267578125 2010.0939618530274 2476.471267578125 C 2012.178628519694 2474.386600911458 2014.2632951863607 2472.3019342447915 2016.3479618530273 2470.217267578125 C 2018.5869618530273 2472.456267578125 2020.8259618530274 2474.695267578125 2023.0649618530274 2476.934267578125 C 2023.3579618530273 2477.227267578125 2023.7419618530273 2477.373267578125 2024.1259618530273 2477.373267578125 C 2024.5099618530273 2477.373267578125 2024.8939618530273 2477.227267578125 2025.1869618530272 2476.934267578125 C 2025.7729618530273 2476.349267578125 2025.7729618530273 2475.398267578125 2025.1869618530272 2474.813267578125 C 2022.9479618530274 2472.574267578125 2020.7089618530274 2470.335267578125 2018.4699618530274 2468.096267578125 C 2021.2706285196941 2465.295600911458 2024.0712951863607 2462.4949342447917 2026.8719618530274 2459.694267578125 C 2031.349628519694 2464.172600911458 2035.8272951863607 2468.6509342447916 2040.3049618530274 2473.129267578125C 2031.475628519694 2481.9589342447916 2022.6462951863607 2490.788600911458 2013.8169618530274 2499.618267578125Z"></path><defs> </defs></svg> 