<?xml version="1.0" encoding="UTF-8"?> <svg xmlns="http://www.w3.org/2000/svg" viewBox="1953.999755859375 2451.8740234375 92.20121002197266 89.17596435546875" width="92.20121002197266" height="89.17596435546875"><path fill="#f4721e" stroke="#f4721e" fill-opacity="1" stroke-width="1" stroke-opacity="1" alignment-baseline="baseline" baseline-shift="baseline" color="rgb(51, 51, 51)" fill-rule="evenodd" font-size-adjust="none" id="tSvg15d9cca7351" d="M 2040.94 2503.35 C 2038.3079784949718 2500.690849808962 2034.7408958713602 2499.165688819985 2031 2499.1 C 2031 2492.326666666667 2031 2485.5533333333333 2031 2478.78 C 2031.0022952841268 2478.279566888878 2030.7498432084724 2477.8123421512296 2030.33 2477.54 C 2018.13 2469.403333333333 2005.93 2461.266666666667 1993.73 2453.13 C 1993.2256377765816 2452.78873095428 1992.5643622234184 2452.78873095428 1992.06 2453.13 C 1979.93 2461.2166666666667 1967.8 2469.3033333333333 1955.67 2477.39 C 1955.2499722622806 2477.6668467816367 1954.997999139775 2478.136945890073 1955 2478.64 C 1955 2490.003333333333 1955 2501.366666666667 1955 2512.73 C 1954.9914393168274 2513.242527357097 1955.2486954576566 2513.7229910311503 1955.68 2514 C 1968.12 2522.1433333333334 1980.56 2530.286666666667 1993 2538.43 C 1993.506809677063 2538.7631889835734 1994.163190322937 2538.7631889835734 1994.67 2538.43 C 2002.67 2532.87 2010.67 2527.31 2018.67 2521.75 C 2018.776004532417 2521.6705824548744 2018.8732226858847 2521.580069001802 2018.96 2521.48 C 2022.34 2527.4133333333334 2025.72 2533.346666666667 2029.1 2539.28 C 2029.3652943625575 2539.740264080812 2029.8490817854965 2540.0312924507525 2030.38 2540.05 C 2030.8979661083101 2540.050165425115 2031.378849969252 2539.781323665294 2031.65 2539.34 C 2035.4333333333334 2533.3233333333333 2039.2166666666667 2527.306666666667 2043 2521.29 C 2043.0498211965064 2521.215299406744 2043.0901322434186 2521.134677313201 2043.12 2521.05 C 2046.55524608698 2515.356806728759 2045.6683297638267 2508.0552165446616 2040.97 2503.35C 2040.96 2503.35 2040.95 2503.35 2040.94 2503.35Z M 1993.84 2501.28 C 1988.32 2497.6133333333332 1982.8 2493.9466666666667 1977.28 2490.28 C 1988.3366666666666 2482.8166666666666 1999.3933333333334 2475.3533333333335 2010.45 2467.89 C 2016.0766666666666 2471.64 2021.7033333333334 2475.39 2027.33 2479.14C 2016.1666666666667 2486.52 2005.0033333333333 2493.9 1993.84 2501.28Z M 1992.84 2456.18 C 1997.7966666666666 2459.483333333333 2002.7533333333333 2462.786666666667 2007.71 2466.09 C 1996.6666666666667 2473.5466666666666 1985.6233333333332 2481.0033333333336 1974.58 2488.46 C 1969.5566666666666 2485.1266666666666 1964.5333333333333 2481.7933333333335 1959.51 2478.46C 1970.62 2471.0333333333333 1981.73 2463.6066666666666 1992.84 2456.18Z M 1958 2481 C 1969.3333333333333 2488.5533333333333 1980.6666666666667 2496.1066666666666 1992 2503.66 C 1992 2513.8333333333335 1992 2524.0066666666667 1992 2534.18 C 1980.6666666666667 2526.76 1969.3333333333333 2519.34 1958 2511.92C 1958 2501.6133333333332 1958 2491.306666666667 1958 2481Z M 1995 2534.54 C 1995 2524.3966666666665 1995 2514.253333333333 1995 2504.11 C 2006 2496.8366666666666 2017 2489.5633333333335 2028 2482.29 C 2028 2487.9733333333334 2028 2493.6566666666668 2028 2499.34 C 2021.1533165982933 2500.6307469854964 2016.1885492754673 2506.602736741865 2016.17 2513.57 C 2016.120371823017 2515.483359741806 2016.5537144012508 2517.3783737170165 2017.43 2519.08 C 2017.286985829221 2519.120535275703 2017.1517787740372 2519.1847586261615 2017.03 2519.27C 2009.6866666666667 2524.36 2002.3433333333332 2529.45 1995 2534.54Z M 2042.17 2513.6 C 2042.1605419478826 2515.7631686485465 2041.5437945696126 2517.8802059821014 2040.39 2519.71 C 2040.3473845948447 2519.7836771355437 2040.3106054542238 2519.860578974886 2040.28 2519.94 C 2037.01 2525.1633333333334 2033.74 2530.3866666666668 2030.47 2535.61 C 2027.3333333333333 2530.0733333333333 2024.1966666666667 2524.536666666667 2021.06 2519 C 2020.9689250298593 2518.7561935509916 2020.8175457302352 2518.5394459183044 2020.62 2518.37 C 2019.92 2517.8 2019.17 2516.06 2019.17 2513.6 C 2019.17 2507.2432025294474 2024.3232025294476 2502.09 2030.68 2502.09C 2037.038175116278 2502.078874089119 2042.1921830011854 2507.241853846473 2042.17 2513.6Z"></path><path fill="#f4721e" stroke="#f4721e" fill-opacity="1" stroke-width="1" stroke-opacity="1" alignment-baseline="baseline" baseline-shift="baseline" color="rgb(51, 51, 51)" fill-rule="evenodd" font-size-adjust="none" id="tSvgfa2cd83d4a" d="M 2030.68 2506.55 C 2027.1806889654986 2506.5498435060554 2024.3410214510411 2509.3807063186564 2024.33 2512.88 C 2024.3133527825958 2516.3915857319844 2027.1583792545955 2519.245587787336 2030.67 2519.24 C 2035.5543832752658 2519.0460545563337 2038.3971707888509 2513.637338653593 2035.787017470055 2509.504311377226C 2034.6712954085751 2507.737629826478 2032.7578521340845 2506.6329028734303 2030.68 2506.55Z M 2034 2512.9 C 2033.994508604477 2514.7423512629907 2032.5023512613202 2516.234508044145 2030.66 2516.24 C 2029.771190144283 2516.236010609423 2028.9210933472918 2515.8758002271206 2028.3 2515.24 C 2027.6559036287242 2514.620464815871 2027.2943883448747 2513.7636735920855 2027.3 2512.87 C 2027.3 2511.025368935565 2028.7953689355652 2509.53 2030.64 2509.53C 2032.5019015899484 2509.524408693407 2034.011124275389 2511.0381232468667 2034 2512.9Z"></path><defs> </defs></svg> 