<?xml version="1.0" encoding="UTF-8"?> <svg xmlns="http://www.w3.org/2000/svg" viewBox="1961.49072265625 2459.745849609375 77.01852416992188 80.50825500488281" width="77.01852416992188" height="80.50825500488281"><path fill="#f4721e" stroke="#f4721e" fill-opacity="1" stroke-width="1" stroke-opacity="1" alignment-baseline="baseline" baseline-shift="baseline" color="rgb(51, 51, 51)" fill-rule="evenodd" font-size-adjust="none" id="tSvg1083958e16b" d="M 2035.8309553527831 2527.7855474853513 C 2026.3009553527831 2517.9122141520184 2016.7709553527832 2508.038880818685 2007.2409553527832 2498.1655474853515 C 2013.0709553527831 2492.3355474853515 2018.9009553527833 2486.5055474853516 2024.7309553527832 2480.6755474853517 C 2025.7909553527832 2481.7355474853516 2026.850955352783 2482.7955474853516 2027.9109553527833 2483.8555474853515 C 2028.1968716319152 2484.141881778286 2028.586343979172 2484.300555711311 2028.9909553527832 2484.2955474853516 C 2029.0476220194498 2484.2955474853516 2029.1042886861164 2484.2955474853516 2029.1609553527833 2484.2955474853516 C 2029.6151615991807 2484.2421062056815 2030.020174138365 2483.984370956123 2030.2609553527832 2483.5955474853517 C 2032.4342886861166 2480.118880818685 2034.6076220194498 2476.6422141520184 2036.7809553527832 2473.1655474853515 C 2037.154156629535 2472.565813630435 2037.05836316737 2471.7869711308945 2036.5509553527831 2471.2955474853516 C 2035.0309553527832 2469.7755474853516 2033.5109553527832 2468.2555474853516 2031.9909553527832 2466.7355474853516 C 2031.496041860829 2466.239839316997 2030.7239354173946 2466.152666008653 2030.1309553527833 2466.5255474853516 C 2026.6542886861166 2468.6988808186848 2023.17762201945 2470.8722141520184 2019.7009553527832 2473.0455474853516 C 2018.8837347874355 2473.555381063125 2018.7519846997252 2474.692335525753 2019.4309553527833 2475.3755474853515 C 2020.4909553527832 2476.4355474853514 2021.5509553527831 2477.4955474853514 2022.6109553527833 2478.555547485352 C 2016.7942886861165 2484.3722141520184 2010.9776220194499 2490.188880818685 2005.1609553527833 2496.0055474853516 C 2000.7209553527832 2491.408880818685 1996.2809553527832 2486.8122141520184 1991.840955352783 2482.2155474853516 C 1996.563650984698 2471.4007114116225 1987.8079322886672 2459.528970862237 1976.0806616950963 2460.8464145075213 C 1975.2902895593616 2460.9352050525445 1974.5080257819463 2461.085369392928 1973.7409553527832 2461.2955474853516 C 1972.6418207485153 2461.5975684134955 1972.2678985477141 2462.9667835246955 1973.0609553527831 2463.7855474853513 C 1975.1409553527833 2465.9555474853514 1977.2209553527832 2468.1255474853515 1979.3009553527831 2470.2955474853516 C 1978.7576220194499 2472.208880818685 1978.2142886861166 2474.1222141520184 1977.6709553527833 2476.0355474853513 C 1975.7509553527832 2476.518880818685 1973.8309553527831 2477.002214152018 1971.9109553527833 2477.4855474853516 C 1969.8342886861165 2475.3355474853515 1967.7576220194499 2473.1855474853514 1965.6809553527833 2471.0355474853513 C 1964.8879754291897 2470.217269806548 1963.5081466378433 2470.547109358433 1963.1709553527833 2471.6355474853517 C 1961.5254474228557 2476.9884383364947 1962.9154539476594 2482.812680559393 1966.8009553527831 2486.8455474853517 C 1971.0888005849756 2491.2995664757477 1977.6426656669994 2492.7217433447527 1983.3909553527833 2490.4455474853517 C 1987.7042886861166 2494.908880818685 1992.0176220194498 2499.3722141520184 1996.3309553527831 2503.8355474853515 C 1993.6642886861166 2506.502214152018 1990.9976220194499 2509.168880818685 1988.3309553527831 2511.8355474853515 C 1987.61762201945 2511.1222141520184 1986.9042886861166 2510.408880818685 1986.1909553527832 2509.6955474853517 C 1985.60532025891 2509.1106407273514 1984.6565904466563 2509.1106407273514 1984.0709553527831 2509.6955474853517 C 1977.1909553527832 2516.5622141520184 1970.3109553527831 2523.428880818685 1963.4309553527833 2530.2955474853516 C 1962.846048598 2530.8811825786697 1962.846048598 2531.8299123920333 1963.4309553527833 2532.4155474853515 C 1965.5642886861165 2534.548880818685 1967.69762201945 2536.6822141520183 1969.8309553527831 2538.8155474853515 C 1970.4165904466563 2539.4004542433518 1971.36532025891 2539.4004542433518 1971.9509553527832 2538.8155474853515 C 1978.8176220194498 2531.9755474853514 1985.6842886861166 2525.1355474853517 1992.5509553527831 2518.2955474853516 C 1993.1358621075665 2517.7099123920334 1993.1358621075665 2516.76118257867 1992.5509553527831 2516.1755474853517 C 1991.8376220194498 2515.4488808186848 1991.1242886861166 2514.7222141520183 1990.4109553527833 2513.9955474853514 C 1993.0776220194498 2511.328880818685 1995.7442886861165 2508.6622141520184 1998.4109553527833 2505.9955474853514 C 2008.0776220194498 2515.9955474853514 2017.7442886861165 2525.9955474853514 2027.4109553527833 2535.9955474853514 C 2028.493887678978 2537.126230763734 2029.9854668387338 2537.774743362908 2031.5509553527831 2537.7955474853516 C 2031.5842886861165 2537.7955474853516 2031.6176220194498 2537.7955474853516 2031.6509553527833 2537.7955474853516 C 2033.1838292817324 2537.798535610998 2034.656421205372 2537.198723338182 2035.7509553527832 2536.1255474853515C 2038.0638002773053 2533.8394026915707 2038.0995198375201 2530.1156386512953 2035.8309553527831 2527.7855474853513Z M 2030.7109553527832 2469.6955474853517 C 2031.6709553527833 2470.6555474853517 2032.6309553527833 2471.6155474853517 2033.590955352783 2472.5755474853518 C 2031.9609553527832 2475.1822141520183 2030.3309553527831 2477.788880818685 2028.7009553527832 2480.3955474853515 C 2026.7642886861165 2478.458880818685 2024.8276220194498 2476.522214152018 2022.8909553527833 2474.5855474853515C 2025.4976220194499 2472.9555474853514 2028.1042886861164 2471.3255474853518 2030.7109553527832 2469.6955474853517Z M 1970.8909553527833 2535.6955474853517 C 1969.4642886861166 2534.2622141520183 1968.0376220194498 2532.828880818685 1966.610955352783 2531.3955474853515 C 1972.7709553527832 2525.2355474853516 1978.9309553527833 2519.0755474853518 1985.090955352783 2512.9155474853515 C 1986.5176220194498 2514.342214152018 1987.9442886861166 2515.768880818685 1989.3709553527833 2517.1955474853517C 1983.2109553527832 2523.362214152018 1977.0509553527831 2529.5288808186847 1970.8909553527833 2535.6955474853517Z M 2033.610955352783 2533.9955474853514 C 2033.0624743832213 2534.5284925279816 2032.3256795319983 2534.8232105238535 2031.5609553527831 2534.8155474853515 C 2030.8040945568368 2534.798479311275 2030.0848766950978 2534.4820234812323 2029.5609553527831 2533.9355474853514 C 2014.64762201945 2518.4888808186847 1999.7342886861165 2503.0422141520185 1984.8209553527831 2487.5955474853517 C 1984.3691696436815 2487.1332295639922 1983.672023417581 2487.012337154624 1983.090955352783 2487.2955474853516 C 1978.332088449317 2489.569584038352 1972.6519103742019 2488.5423177945004 1968.9909553527832 2484.7455474853514 C 1966.534007388892 2482.1954559069204 1965.2856073536682 2478.7159502718673 1965.5609553527831 2475.1855474853514 C 1967.1709553527833 2476.8522141520184 1968.7809553527832 2478.518880818685 1970.3909553527833 2480.1855474853514 C 1970.7655933731694 2480.572683158733 1971.3190650587626 2480.72918205023 1971.840955352783 2480.5955474853517 C 1974.3209553527831 2479.9722141520183 1976.8009553527831 2479.348880818685 1979.2809553527832 2478.7255474853514 C 1979.790992871132 2478.6038902799974 1980.200481846066 2478.224733822685 1980.360955352783 2477.7255474853514 C 1981.0609553527831 2475.2588808186847 1981.7609553527832 2472.7922141520185 1982.4609553527832 2470.3255474853518 C 1982.607318548779 2469.812585422983 1982.470245412374 2469.2604852913137 1982.100955352783 2468.8755474853515 C 1980.4876220194499 2467.208880818685 1978.8742886861166 2465.5422141520185 1977.2609553527832 2463.8755474853515 C 1986.739196425643 2463.4598212749474 1993.121642010687 2473.4497363084474 1988.7609553527832 2481.8755474853515 C 1988.4833787324872 2482.429318638603 1988.574754331024 2483.0967577951938 1988.9909553527832 2483.555547485352 C 2003.8842886861166 2498.9922141520183 2018.7776220194498 2514.428880818685 2033.6709553527833 2529.8655474853517C 2034.7819010452256 2531.0200029507673 2034.755127168607 2532.854013442596 2033.610955352783 2533.9955474853514Z"></path><defs> </defs></svg> 