<?xml version="1.0" encoding="UTF-8" standalone="no"?> <svg xmlns="http://www.w3.org/2000/svg" version="1.0" width="192.000000pt" height="192.000000pt" viewBox="0 0 192.000000 192.000000" preserveAspectRatio="xMidYMid meet"><g transform="translate(0.000000,192.000000) scale(0.100000,-0.100000)" fill="#000000" stroke="none"><path d="M530 1110 c0 -6 37 -10 90 -10 50 0 90 -3 90 -7 0 -5 -41 -41 -90 -82 -55 -45 -90 -81 -90 -92 0 -17 9 -19 110 -19 67 0 110 4 110 10 0 6 -37 10 -90 10 -49 0 -90 4 -90 9 0 5 41 43 90 85 50 43 90 84 90 92 0 11 -21 14 -110 14 -67 0 -110 -4 -110 -10z"></path><path d="M790 1110 c0 -6 40 -10 100 -10 60 0 100 4 100 10 0 6 -40 10 -100 10 -60 0 -100 -4 -100 -10z"></path><path d="M1041 1106 c-7 -8 -11 -34 -9 -58 l3 -43 93 -3 93 -3 -3 -37 -3 -37 -67 -3 c-37 -2 -77 2 -89 8 -26 14 -36 6 -19 -15 9 -11 34 -15 101 -15 77 0 90 2 99 19 14 27 13 76 -3 89 -7 6 -51 12 -97 14 l-85 3 0 35 0 35 83 3 c52 2 82 -1 82 -8 0 -5 7 -10 15 -10 18 0 19 12 3 28 -18 18 -182 16 -197 -2z"></path><path d="M1270 1111 c0 -6 21 -11 48 -13 l47 -3 3 -97 c4 -130 22 -128 22 2 l0 100 50 0 c28 0 50 5 50 10 0 6 -43 10 -110 10 -62 0 -110 -4 -110 -9z"></path><path d="M1653 1052 c-40 -37 -73 -73 -73 -80 0 -8 22 -12 74 -12 73 0 75 0 78 -27 4 -39 28 -42 28 -4 0 21 5 31 15 31 8 0 15 5 15 10 0 6 -7 10 -15 10 -12 0 -15 14 -15 70 0 91 -11 91 -107 2z m77 -22 l0 -50 -57 0 -58 1 54 49 c30 28 56 50 58 50 2 0 3 -22 3 -50z"></path><path d="M790 1010 c0 -6 40 -10 100 -10 60 0 100 4 100 10 0 6 -40 10 -100 10 -60 0 -100 -4 -100 -10z"></path><path d="M790 910 c0 -6 40 -10 100 -10 60 0 100 4 100 10 0 6 -40 10 -100 10 -60 0 -100 -4 -100 -10z"></path><path d="M537 833 c-4 -3 -7 -24 -7 -45 l0 -38 43 2 42 1 -37 4 c-36 4 -38 6 -38 38 0 33 2 34 43 38 l42 4 -41 1 c-22 1 -44 -1 -47 -5z"></path><path d="M647 834 c-4 -4 -7 -25 -7 -46 l0 -38 46 0 45 0 -3 43 c-3 40 -4 42 -38 45 -20 2 -39 0 -43 -4z m73 -39 c0 -33 -2 -35 -35 -35 -33 0 -35 2 -35 35 0 33 2 35 35 35 33 0 35 -2 35 -35z"></path><path d="M762 795 c1 -48 1 -48 7 -12 l6 37 28 -35 c15 -19 32 -35 37 -35 6 0 9 21 8 48 l-1 47 -4 -43 -4 -43 -39 43 -39 43 1 -50z"></path><path d="M874 825 c-9 -23 3 -33 45 -37 22 -2 37 0 35 4 -3 5 -21 8 -40 8 -24 0 -34 4 -31 13 2 6 20 12 40 12 21 0 37 3 37 8 0 14 -80 8 -86 -8z"></path><path d="M1008 830 c13 -6 31 -6 45 0 18 7 14 9 -23 9 -37 0 -41 -2 -22 -9z"></path><path d="M1100 833 c0 -4 17 -8 37 -8 29 0 38 -4 41 -19 3 -16 -1 -18 -37 -14 -27 2 -41 0 -41 -8 0 -7 8 -10 20 -7 12 3 30 -2 43 -13 15 -13 18 -14 9 -3 -10 14 -10 18 3 23 10 3 15 15 13 28 -2 19 -10 24 -45 26 -24 2 -43 0 -43 -5z"></path><path d="M1212 798 l-2 -48 45 0 45 0 -2 43 -1 42 -4 -37 c-4 -36 -6 -38 -38 -38 -33 0 -34 2 -38 43 l-4 42 -1 -47z"></path><path d="M1330 795 l0 -45 43 2 42 1 -37 4 c-36 4 -38 6 -38 38 0 33 2 34 43 38 l42 4 -47 1 -48 2 0 -45z"></path><path d="M1457 833 c18 -3 23 -13 26 -46 l4 -42 1 42 c2 35 6 42 25 46 12 2 0 4 -28 4 -27 0 -40 -2 -28 -4z"></path><path d="M1553 795 c0 -27 2 -38 4 -22 2 15 2 37 0 50 -2 12 -4 0 -4 -28z"></path><path d="M1584 816 c-12 -49 -3 -61 46 -61 l45 0 0 40 c0 40 0 40 -42 43 -38 3 -43 0 -49 -22z m84 -23 c3 -32 2 -33 -37 -33 -38 0 -41 2 -41 28 0 37 8 44 45 40 26 -3 30 -7 33 -35z"></path><path d="M1701 793 l2 -48 6 40 6 40 29 -37 c15 -21 32 -38 37 -38 5 0 8 19 8 43 -2 42 -2 42 -8 8 l-6 -34 -32 36 c-18 20 -35 37 -38 37 -3 0 -4 -21 -4 -47z"></path><path d="M898 753 c12 -2 32 -2 45 0 12 2 2 4 -23 4 -25 0 -35 -2 -22 -4z"></path></g></svg> 