<?xml version="1.0" encoding="UTF-8"?> <svg xmlns="http://www.w3.org/2000/svg" viewBox="1967.2900390625 2462.5185928344727 65.419921875 74.96281433105469" width="65.419921875" height="74.96281433105469"><path fill="#f4721e" stroke="#f4721e" fill-opacity="1" stroke-width="1" stroke-opacity="1" alignment-baseline="baseline" baseline-shift="baseline" color="rgb(51, 51, 51)" fill-rule="evenodd" font-size-adjust="none" id="tSvg1e4ba3366b" d="M 2000.0000219726562 2503.271491088867 C 1982.4939373454492 2503.2880433728424 1968.306560555897 2517.475406448711 1968.2900219726562 2534.981491088867 C 1968.2900219726562 2535.8099182136134 1968.96159484791 2536.481491088867 1969.7900219726562 2536.481491088867 C 1989.9300219726563 2536.481491088867 2010.0700219726561 2536.481491088867 2030.2100219726562 2536.481491088867 C 2031.0384490974025 2536.481491088867 2031.7100219726562 2535.8099182136134 2031.7100219726562 2534.981491088867C 2031.6879838021182 2517.477682205765 2017.5038308488006 2503.2935347848306 2000.0000219726562 2503.271491088867Z M 1971.3300219726561 2533.481491088867 C 1972.4962631511094 2511.4113147979156 1997.1168305541514 2498.8799477433536 2015.64704329889 2510.925030376309 C 2023.3450799257294 2515.928938780336 2028.1855284899784 2524.3128416087475 2028.6700219726563 2533.481491088867C 2009.5566886393228 2533.481491088867 1990.4433553059896 2533.481491088867 1971.3300219726561 2533.481491088867Z M 1999.4700219726562 2500.1514910888673 C 2009.5849309854189 2500.140475581173 2017.7834913288925 2491.946392591882 2017.8000219726562 2481.831491088867 C 2017.8000219726562 2481.371491088867 2017.8000219726562 2480.931491088867 2017.7300219726562 2480.481491088867 C 2020.0633553059895 2480.481491088867 2022.396688639323 2480.481491088867 2024.7300219726562 2480.481491088867 C 2025.8847225110355 2480.481491088867 2026.6064103475226 2479.231491088867 2026.0290600783328 2478.231491088867 C 2025.7611108859019 2477.7673894737295 2025.2659203575186 2477.481491088867 2024.7300219726562 2477.481491088867 C 2022.2233553059896 2477.481491088867 2019.716688639323 2477.481491088867 2017.2100219726562 2477.481491088867 C 2013.8536529870453 2463.7918939905626 1996.9364988049022 2458.869271820798 1986.759144443002 2468.620771175964 C 1976.581790081102 2478.3722705311293 1980.7772513131158 2495.48426690401 1994.310974660627 2499.422364647149C 1995.98710946514 2499.910093154771 1997.724373116975 2500.1556205810884 1999.4700219726562 2500.1514910888673Z M 1999.4700219726562 2466.501491088867 C 2006.273778168642 2466.4903279401883 2012.2730634094535 2470.9592664289266 2014.2100219726562 2477.481491088867 C 2004.4000219726563 2477.481491088867 1994.5900219726564 2477.481491088867 1984.7800219726562 2477.481491088867C 1986.7044339148542 2470.969083331622 1992.6792465303786 2466.495093017286 1999.4700219726562 2466.501491088867Z M 1984.2100219726562 2480.481491088867 C 1994.3833553059897 2480.481491088867 2004.5566886393228 2480.481491088867 2014.7300219726562 2480.481491088867 C 2014.7300219726562 2480.9214910888672 2014.8000219726562 2481.371491088867 2014.8000219726562 2481.831491088867 C 2014.4986424352437 2493.6286815894805 2001.539446891065 2500.675672724142 1991.4734699929554 2494.516075138255 C 1987.0396710059613 2491.802933849234 1984.2827717595083 2487.0278442913886 1984.1500219726563 2481.831491088867C 1984.1500219726563 2481.371491088867 1984.1700219726563 2480.9214910888672 1984.2100219726562 2480.481491088867Z"></path><path fill="#f4721e" stroke="#f4721e" fill-opacity="1" stroke-width="1" stroke-opacity="1" alignment-baseline="baseline" baseline-shift="baseline" color="rgb(51, 51, 51)" fill-rule="evenodd" font-size-adjust="none" id="tSvgb341cd1754" d="M 2012.7100219726562 2515.481491088867 C 2007.7063196396796 2515.481491088867 2004.579005681569 2520.8981577555337 2007.0808568480575 2525.231491088867 C 2009.5827080145457 2529.5648244222007 2015.8373359307668 2529.5648244222007 2018.339187097255 2525.231491088867 C 2018.9096812534672 2524.243366224887 2019.2100219726562 2523.1224794012915 2019.2100219726562 2521.981491088867C 2019.2045153371232 2518.39392362845 2016.297589433039 2515.486997746845 2012.7100219726562 2515.481491088867Z M 2012.7100219726562 2525.481491088867 C 2010.015720716438 2525.481491088867 2008.3317824313017 2522.5648244222007 2009.6789330594106 2520.231491088867 C 2011.0260836875198 2517.8981577555337 2014.3939602577927 2517.8981577555337 2015.741110885902 2520.231491088867 C 2016.048300046939 2520.763558323318 2016.2100219726562 2521.3671127667926 2016.2100219726562 2521.981491088867C 2016.2100219726562 2523.914487713275 2014.643018597064 2525.481491088867 2012.7100219726562 2525.481491088867Z"></path><defs> </defs></svg> 